<svg id="e89d7710tr4p1" xmlns="http://www.w3.org/2000/svg" xmlns:xlink="http://www.w3.org/1999/xlink" viewBox="-350 -350 1400 1400" shape-rendering="geometricPrecision" text-rendering="geometricPrecision"><style><![CDATA[#e89d7710tr4p3_ts {animation: e89d7710tr4p3_ts__ts 6000ms linear infinite normal forwards}@keyframes e89d7710tr4p3_ts__ts { 0% {transform: translate(-202.293175px,-123.941631px) scale(1.250000,1.250000)} 50% {transform: translate(-202.293175px,-123.941631px) scale(1.500000,1.500000)} 100% {transform: translate(-202.293175px,-123.941631px) scale(1.250000,1.250000)} }#e89d7710tr4p4_ts {animation: e89d7710tr4p4_ts__ts 6000ms linear infinite normal forwards}@keyframes e89d7710tr4p4_ts__ts { 0% {transform: translate(177.406401px,-0.920229px) rotate(130deg) scale(1.250000,1.250000)} 50% {transform: translate(177.406401px,-0.920229px) rotate(130deg) scale(1,1)} 100% {transform: translate(177.406401px,-0.920229px) rotate(130deg) scale(1.250000,1.250000)} }#e89d7710tr4p5_to {animation: e89d7710tr4p5_to__to 6000ms linear infinite normal forwards}@keyframes e89d7710tr4p5_to__to { 0% {transform: translate(-65.145177px,-19.938156px)} 50% {transform: translate(-94.929432px,-84.575168px)} 100% {transform: translate(-65.145177px,-19.938156px)} }#e89d7710tr4p5_ts {animation: e89d7710tr4p5_ts__ts 6000ms linear infinite normal forwards}@keyframes e89d7710tr4p5_ts__ts { 0% {transform: scale(1,1)} 50% {transform: scale(0.500000,0.500000)} 100% {transform: scale(1,1)} }#e89d7710tr4p6_to {animation: e89d7710tr4p6_to__to 6000ms linear infinite normal forwards}@keyframes e89d7710tr4p6_to__to { 0% {transform: translate(66.861940px,-59.280454px)} 50% {transform: translate(123.281262px,-173.037339px)} 100% {transform: translate(66.861940px,-59.280454px)} }#e89d7710tr4p6_ts {animation: e89d7710tr4p6_ts__ts 6000ms linear infinite normal forwards}@keyframes e89d7710tr4p6_ts__ts { 0% {transform: rotate(130deg) scale(0.500000,0.500000)} 50% {transform: rotate(130deg) scale(1,1)} 100% {transform: rotate(130deg) scale(0.500000,0.500000)} }]]></style><g id="e89d7710tr4p2" transform="matrix(1 0 0 1 300 300)"><g id="e89d7710tr4p3_ts" transform="translate(-202.293175,-123.941631) scale(1.250000,1.250000)"><path id="e89d7710tr4p3" d="M120.449811,-110.918124C164.323900,-74.003373,214.249586,-36.180883,201.843810,-10.764170C189.538893,14.753403,114.801653,27.764340,70.927564,64.275650C27.053476,100.786960,14.042539,160.596925,0.023003,161.605524C-13.996533,162.513264,-29.024669,104.518779,-37.396047,68.108329C-45.868285,31.597019,-47.683764,16.568883,-65.031680,-15.706309C-82.379595,-48.082360,-115.259946,-97.705467,-106.888569,-134.721077C-98.416331,-171.736687,-48.793224,-195.943081,-5.019996,-189.992343C38.753233,-184.041604,76.575723,-147.933734,120.449811,-110.918124Z" transform="translate(0,0)" fill="rgb(30,135,240)" stroke="none" stroke-width="1"/></g><g id="e89d7710tr4p4_ts" transform="translate(177.406401,-0.920229) rotate(130) scale(1.250000,1.250000)"><path id="e89d7710tr4p4" d="M155.937856,33.345247C181.124760,50.719526,209.785720,68.521041,202.663906,80.483659C195.599992,92.493748,152.695403,98.617469,127.508499,115.801865C102.321595,132.986261,94.852375,161.136391,86.804146,161.611098C78.755916,162.038334,70.128678,134.742677,65.322901,117.605752C60.459223,100.421356,59.417006,93.348221,49.458046,78.157594C39.499086,62.919497,20.623383,39.563909,25.429160,22.142160C30.292838,4.720410,58.780096,-6.672559,83.909099,-3.871788C109.038103,-1.071016,130.750951,15.923497,155.937856,33.345247Z" transform="translate(0,0)" fill="rgb(30,135,241)" stroke="none" stroke-width="1"/></g><g id="e89d7710tr4p5_to" transform="translate(-65.145177,-19.938156)"><g id="e89d7710tr4p5_ts" transform="scale(1,1)"><path id="e89d7710tr4p5" d="M-25.231464,-161.402001C-9.307606,-147.790315,8.812645,-133.843916,4.310037,-124.471936C-0.155964,-115.062765,-27.281432,-110.265204,-43.205289,-96.802280C-59.129147,-83.339356,-63.851394,-61.285450,-68.939707,-60.913546C-74.028021,-60.578832,-79.482399,-81.963311,-82.520745,-95.389045C-85.595696,-108.851969,-86.254615,-114.393338,-92.550945,-126.294265C-98.847274,-138.232383,-110.781016,-156.530059,-107.742671,-170.178935C-104.667719,-183.827811,-86.657287,-192.753506,-70.770036,-190.559273C-54.882785,-188.365039,-41.155321,-175.050877,-25.231464,-161.402001Z" transform="translate(-65.150000,-19.940000)" fill="rgb(255,255,255)" stroke="none" stroke-width="1"/></g></g><g id="e89d7710tr4p6_to" transform="translate(66.861940,-59.280454)"><g id="e89d7710tr4p6_ts" transform="rotate(130) scale(0.500000,0.500000)"><path id="e89d7710tr4p6" d="M173.676866,69.404157C189.522817,81.894257,207.554417,94.691491,203.073838,103.291232C198.629686,111.925099,171.636927,116.327347,155.790976,128.680943C139.945024,141.034539,135.245880,161.271231,130.182461,161.612491C125.119042,161.919624,119.691348,142.297200,116.667868,129.977729C113.607960,117.624133,112.952265,112.539366,106.686740,101.619060C100.421214,90.664628,88.545857,73.874658,91.569338,61.350432C94.629246,48.826206,112.551563,40.635976,128.361087,42.649408C144.170611,44.662839,157.830914,56.879931,173.676866,69.404157Z" transform="translate(60,-180)" fill="rgb(255,255,255)" stroke="none" stroke-width="1"/></g></g></g></svg>